<?xml version="1.0" standalone="no"?>
<!DOCTYPE svg PUBLIC "-//W3C//DTD SVG 20010904//EN"
 "http://www.w3.org/TR/2001/REC-SVG-20010904/DTD/svg10.dtd">
<svg version="1.0" xmlns="http://www.w3.org/2000/svg"
 width="300.000000pt" height="424.000000pt" viewBox="0 0 300.000000 424.000000"
 preserveAspectRatio="xMidYMid meet">
<metadata>
Created by potrace 1.10, written by Peter Selinger 2001-2011
</metadata>
<g transform="translate(0.000000,424.000000) scale(0.100000,-0.100000)"
fill="#000000" stroke="none">
<path d="M1700 2984 c-63 -40 -136 -64 -194 -64 l-40 0 34 35 c19 19 29 35 23
35 -6 0 -16 -7 -23 -15 -12 -15 -140 -79 -222 -112 -23 -9 -36 -19 -29 -21 7
-2 16 -15 21 -28 8 -20 1 -41 -37 -113 -41 -80 -46 -97 -48 -162 -3 -71 -4
-74 -31 -86 -53 -22 -68 -17 -101 40 -18 28 -35 66 -40 82 l-8 30 -6 -40 -5
-40 -19 40 c-23 48 -26 180 -6 238 15 44 9 60 -10 25 -8 -13 -15 -67 -17 -128
-3 -95 -1 -109 20 -145 13 -22 33 -44 45 -49 11 -6 28 -22 38 -38 16 -27 16
-28 -8 -28 -71 0 -101 -130 -54 -234 51 -111 143 -206 199 -206 8 0 15 -8 16
-17 1 -10 4 -36 6 -58 3 -22 10 -71 16 -108 7 -38 9 -94 6 -125 -4 -31 -8 -73
-9 -92 -3 -28 -10 -38 -38 -52 -40 -21 -69 -53 -69 -78 0 -26 -60 -72 -228
-176 -170 -105 -197 -129 -244 -220 -50 -96 -54 -113 -28 -111 11 1 20 7 20
13 0 24 80 170 107 195 15 14 73 54 128 88 143 90 187 121 215 150 21 22 25
23 28 8 6 -28 19 -19 15 11 -6 41 12 79 47 97 18 9 33 15 35 13 1 -2 -1 -25
-5 -53 -10 -65 9 -87 88 -105 31 -7 71 -16 88 -21 37 -11 237 -14 313 -5 68 9
123 31 139 56 10 16 9 28 -2 60 -13 37 -12 40 5 40 25 0 49 -38 49 -80 0 -23
3 -30 9 -22 7 12 17 11 62 -1 30 -9 81 -21 114 -28 49 -9 67 -19 97 -50 45
-47 169 -231 209 -311 17 -33 33 -58 36 -54 12 12 -112 215 -200 329 -63 81
-87 97 -163 109 -101 15 -150 39 -157 77 -5 25 -14 32 -47 42 -39 12 -41 14
-38 48 3 33 6 36 38 39 70 5 139 24 164 43 15 12 33 45 46 85 12 37 36 97 54
133 18 36 41 88 51 114 17 44 20 47 45 42 36 -8 56 16 85 103 49 146 55 251
15 287 -11 10 -28 15 -40 12 -16 -4 -14 2 13 34 19 21 39 56 45 78 13 43 16
121 5 121 -5 0 -8 -24 -9 -54 0 -39 -8 -66 -28 -100 -15 -25 -31 -46 -36 -46
-4 0 -18 15 -29 33 -18 30 -20 44 -14 135 4 78 3 106 -8 118 -11 14 -11 18 4
29 25 18 21 27 -10 25 -84 -6 -122 8 -70 25 15 5 -7 10 -68 15 -85 6 -155 29
-155 49 0 5 17 15 38 21 20 7 42 17 47 23 7 7 4 8 -10 3 -11 -4 -60 -13 -108
-19 -68 -9 -92 -8 -107 1 -11 7 -28 12 -38 12 -34 0 -32 13 6 46 52 45 37 49
-28 8z m13 -71 c19 -10 58 -18 95 -19 52 -1 68 -6 90 -26 30 -28 81 -48 120
-48 14 0 36 -9 48 -21 12 -11 40 -23 62 -26 56 -7 67 -36 58 -148 -5 -55 -3
-92 4 -105 13 -24 4 -25 -36 -6 -35 18 -254 37 -271 24 -7 -5 -13 -4 -16 4 -2
7 -7 10 -11 7 -4 -4 0 -14 9 -22 8 -9 15 -20 15 -26 0 -18 -40 -33 -70 -26
-33 7 -67 40 -51 50 36 22 -1 26 -186 23 -196 -4 -199 -5 -272 -36 -97 -42
-101 -42 -101 11 0 62 23 131 66 195 33 51 36 58 25 87 -14 40 -14 45 2 45 6
0 40 13 74 29 56 27 70 29 130 25 46 -4 83 -1 113 9 60 20 66 20 103 0z m-9
-421 c28 -12 29 -15 23 -65 -7 -69 -35 -137 -61 -147 -21 -8 -149 -5 -219 6
-25 4 -43 14 -54 30 -16 25 -30 150 -20 177 7 18 288 17 331 -1z m461 -29 c14
-14 17 -30 13 -90 -3 -41 -10 -79 -17 -86 -8 -8 -48 -12 -114 -12 l-102 0 -19
39 c-11 22 -19 62 -20 94 -1 68 3 70 146 71 78 1 100 -2 113 -16z m-945 -22
c0 -10 -24 -21 -47 -21 -13 0 -13 3 -3 15 13 16 50 21 50 6z m-108 -31 c20
-11 39 -33 45 -52 25 -69 62 -228 68 -289 10 -104 25 -146 69 -196 95 -108
323 -245 430 -258 l56 -7 0 -44 c0 -25 7 -61 15 -81 8 -19 15 -43 15 -53 0
-29 -90 -51 -227 -57 -129 -6 -202 3 -309 38 l-61 20 14 87 c20 130 20 280 -2
409 l-18 112 -29 -6 c-38 -8 -69 15 -119 88 -90 133 -106 223 -50 280 35 34
58 36 103 9z m223 -39 c3 -26 15 -62 25 -78 16 -28 25 -31 109 -43 84 -12 208
-9 232 5 5 4 23 36 39 71 l29 65 47 -3 47 -3 18 -55 c10 -32 30 -65 46 -79 26
-23 32 -24 144 -18 l116 5 -5 -24 c-2 -14 -19 -36 -37 -49 -29 -23 -33 -32
-42 -108 -8 -62 -22 -109 -58 -192 -58 -131 -61 -135 -79 -109 -13 18 -22 19
-95 13 -63 -4 -88 -11 -112 -28 -31 -23 -32 -23 -97 -7 -88 22 -167 59 -185
88 -8 12 -18 59 -21 102 -4 44 -11 87 -16 97 -5 9 -33 34 -62 55 -29 20 -59
44 -66 53 -10 13 -57 153 -88 263 -5 18 11 25 68 27 36 1 36 1 43 -48z m963
-39 c3 -78 -13 -159 -49 -243 -19 -44 -25 -50 -48 -47 -19 2 -25 8 -24 23 2
11 10 88 20 170 9 83 21 156 26 163 6 7 24 12 41 10 l31 -3 3 -73z m-1088 61
c0 -5 -4 -14 -9 -22 -8 -12 -11 -12 -25 1 -8 9 -12 18 -9 22 9 9 43 8 43 -1z
m75 -277 c11 -14 41 -40 66 -58 62 -42 68 -54 78 -153 10 -97 20 -114 93 -151
116 -59 196 -69 265 -35 44 22 145 29 172 12 8 -5 21 -7 29 -4 21 9 122 230
133 293 15 87 19 101 27 96 22 -14 3 -98 -48 -207 -29 -63 -63 -143 -74 -179
-20 -62 -22 -65 -66 -78 -25 -7 -90 -16 -145 -18 -89 -5 -106 -3 -160 19 -87
34 -242 133 -293 186 -90 93 -104 123 -109 223 -2 49 -4 92 -4 96 -3 20 4 24
9 6 4 -12 16 -33 27 -48z"/>
<path d="M1456 2428 c-9 -12 -15 -34 -15 -48 1 -17 3 -19 6 -7 6 23 107 25
129 2 22 -22 47 -18 74 10 25 27 21 54 -11 63 -11 4 -12 2 -1 -9 23 -25 12
-29 -79 -29 -86 0 -90 1 -84 20 8 26 0 25 -19 -2z"/>
<path d="M1481 2339 c8 -5 34 -8 59 -8 53 1 44 6 -24 12 -30 3 -43 1 -35 -4z"/>
<path d="M1925 2420 c-10 -16 13 -30 52 -30 17 0 35 -4 38 -10 10 -15 55 -12
61 5 4 8 15 15 25 15 10 0 19 3 19 8 0 4 -39 5 -86 3 -60 -2 -89 1 -94 9 -6
10 -9 10 -15 0z"/>
<path d="M1017 2366 c-15 -12 -16 -20 -8 -48 8 -29 9 -30 10 -7 2 55 43 64 86
19 25 -26 27 -33 17 -55 -19 -40 -14 -62 18 -95 32 -33 38 -58 18 -78 -9 -9
-8 -12 5 -12 39 0 30 67 -16 117 -17 19 -19 27 -9 48 19 41 14 59 -21 93 -35
34 -70 40 -100 18z"/>
<path d="M1899 2234 c33 -42 26 -89 -22 -141 -12 -14 -15 -23 -8 -23 21 0 88
39 95 55 7 19 -48 121 -70 129 -11 4 -10 -2 5 -20z"/>
<path d="M1674 2136 c-9 -39 -1 -70 21 -74 19 -4 19 -3 2 10 -15 11 -16 18 -8
41 14 35 14 47 1 47 -5 0 -12 -11 -16 -24z"/>
<path d="M1752 2108 c-17 -17 -15 -38 4 -38 27 0 54 20 48 35 -7 18 -35 20
-52 3z"/>
<path d="M1720 2021 c-61 -32 -84 -53 -99 -94 -13 -34 -7 -34 61 3 107 58 210
75 268 45 28 -15 30 -14 30 5 0 14 -15 27 -50 45 -69 35 -137 33 -210 -4z"/>
<path d="M1817 1883 c-37 -6 -30 -25 14 -40 29 -10 37 -9 53 7 34 33 10 44
-67 33z"/>
<path d="M1179 1021 c-28 -28 -29 -34 -29 -116 0 -83 1 -88 30 -116 28 -28 33
-30 92 -26 35 3 71 8 81 12 9 4 23 2 30 -3 14 -12 205 -11 225 2 6 4 21 2 32
-4 14 -7 26 -8 39 0 13 6 28 7 44 1 31 -12 67 11 67 42 0 12 10 61 22 109 l23
88 -22 22 c-20 19 -25 20 -47 8 -18 -9 -29 -10 -38 -2 -10 8 -100 10 -183 3
-5 -1 -27 2 -48 5 -24 4 -48 1 -63 -7 -19 -10 -27 -10 -36 -1 -16 16 -49 15
-74 -3 -19 -12 -24 -12 -40 0 -31 24 -72 18 -105 -14z m95 -17 c20 -20 21 -64
2 -64 -8 0 -16 10 -18 23 -2 12 -10 22 -18 22 -12 0 -15 -16 -15 -80 0 -64 3
-80 15 -80 9 0 16 11 18 28 5 37 32 36 32 -2 0 -60 -71 -83 -98 -31 -17 32
-12 161 7 184 17 20 55 21 75 0z m126 -56 c6 -40 15 -92 19 -115 8 -38 7 -43
-10 -43 -12 0 -19 7 -19 19 0 12 -9 20 -25 23 -21 4 -25 1 -25 -18 0 -18 -6
-24 -21 -24 -15 0 -19 5 -15 18 3 9 10 55 16 102 15 109 15 110 44 110 22 0
25 -5 36 -72z m125 58 c13 -10 18 -24 17 -50 -3 -52 -3 -66 4 -118 6 -44 4
-48 -15 -48 -18 0 -21 6 -21 44 0 29 -5 46 -15 49 -21 9 -28 -8 -20 -53 6 -36
5 -40 -14 -40 -20 0 -21 5 -21 115 l0 115 33 0 c18 0 42 -6 52 -14z m126 4
c14 -8 19 -21 19 -50 0 -21 -5 -42 -10 -45 -7 -4 -7 -11 -2 -18 5 -7 12 -33
15 -59 6 -43 5 -48 -13 -48 -17 0 -20 7 -20 45 0 25 -2 45 -4 45 -2 0 -11 3
-20 6 -13 5 -16 -2 -16 -45 0 -39 -4 -51 -15 -51 -12 0 -15 19 -15 115 l0 115
31 0 c17 0 39 -5 50 -10z m80 -42 c13 -56 16 -54 33 25 4 18 13 27 25 27 18 0
18 -4 -5 -75 -13 -42 -24 -94 -24 -115 0 -33 -3 -40 -20 -40 -17 0 -20 7 -20
49 0 27 -9 78 -20 113 -11 34 -20 64 -20 66 0 1 9 2 19 2 15 0 22 -12 32 -52z"/>
<path d="M1356 953 c-2 -10 -6 -34 -8 -53 -2 -26 1 -35 14 -38 15 -3 16 3 11
50 -7 61 -9 67 -17 41z"/>
<path d="M1477 984 c-4 -4 -7 -20 -7 -36 0 -22 5 -28 21 -28 17 0 20 5 17 32
-3 31 -17 45 -31 32z"/>
<path d="M1607 984 c-4 -4 -7 -20 -7 -36 0 -22 5 -28 21 -28 17 0 20 5 17 32
-3 31 -17 45 -31 32z"/>
<path d="M1175 645 c-23 -22 -25 -32 -25 -118 0 -80 3 -98 21 -121 16 -20 24
-24 38 -16 10 5 21 6 25 3 10 -10 126 -11 180 -2 28 5 54 5 60 0 14 -12 66 -8
91 6 15 9 26 8 45 -2 16 -9 32 -10 41 -5 7 5 24 7 36 4 12 -3 29 -1 39 4 13 7
24 6 40 -5 20 -13 24 -12 43 8 18 20 21 35 21 124 0 89 -3 104 -20 120 -25 22
-128 32 -160 15 -18 -9 -28 -9 -46 1 -20 10 -27 10 -44 -6 -13 -12 -25 -15
-37 -9 -43 19 -212 23 -245 5 -24 -13 -29 -13 -46 2 -24 22 -28 22 -57 -8z
m50 -27 c3 -13 11 -54 18 -93 l13 -70 18 93 c16 77 22 92 37 92 17 0 19 -9 19
-115 0 -100 -2 -115 -16 -115 -15 0 -16 11 -12 85 8 122 5 116 -28 -57 -10
-52 -30 -30 -46 50 l-16 77 -1 -77 c-1 -63 -4 -78 -16 -78 -13 0 -15 16 -11
113 3 61 5 113 6 115 0 1 7 2 15 2 8 0 17 -10 20 -22z m155 -93 c0 -96 -3
-115 -15 -115 -12 0 -15 19 -15 115 0 96 3 115 15 115 12 0 15 -19 15 -115z
m81 30 l27 -80 1 83 c1 47 5 82 11 82 6 0 10 -45 10 -115 0 -92 -3 -115 -14
-115 -12 0 -56 116 -56 148 0 6 -4 13 -8 16 -5 3 -6 -33 -4 -80 4 -73 2 -84
-12 -84 -14 0 -16 16 -16 116 0 102 2 115 17 112 10 -2 26 -31 44 -83z m160 0
c8 -44 18 -95 22 -112 5 -25 3 -33 -8 -33 -7 0 -15 10 -17 23 -2 16 -11 23
-30 25 -22 3 -29 -2 -34 -22 -6 -27 -24 -36 -24 -13 0 12 25 153 35 195 4 15
12 22 23 20 13 -2 21 -23 33 -83z m137 68 c2 -8 -6 -13 -22 -13 l-26 0 0 -100
c0 -60 -4 -100 -10 -100 -6 0 -10 40 -10 100 0 100 0 100 -25 100 -25 0 -32
10 -18 24 12 12 106 2 111 -11z m42 -98 c0 -96 -3 -115 -15 -115 -12 0 -15 19
-15 115 0 96 3 115 15 115 12 0 15 -19 15 -115z"/>
<path d="M1576 556 c-4 -27 -10 -55 -13 -62 -4 -10 3 -14 21 -14 26 0 27 2 20
38 -16 85 -20 91 -28 38z"/>
</g>
</svg>
